# Blender v2.69 (sub 0) OBJ File: 'cassapanca.blend'
# www.blender.org
v 0.724754 0.413766 -0.436879
v 0.756897 -0.271628 -0.456254
v -0.756897 -0.271628 -0.456254
v -0.724753 0.413766 -0.436879
v 0.724754 0.413766 0.436879
v 0.756896 -0.271628 0.456255
v -0.756897 -0.271628 0.456255
v -0.724754 0.413766 0.436879
v 0.807491 0.376527 -0.486753
v -0.807491 0.376527 -0.486753
v 0.807491 0.376540 0.486753
v -0.807491 0.376527 0.486753
vt 0.185349 0.466538
vt 0.164438 0.717782
vt 0.811011 0.466538
vt 0.803246 0.048911
vt 0.196442 0.049290
vt 0.844192 0.017055
vt 0.803334 0.414305
vt 0.843693 0.446503
vt 0.694101 0.736416
vt 0.320200 0.736416
vt 0.706598 0.986023
vt 0.155808 0.017055
vt 0.156735 0.447252
vt 0.307704 0.986028
vt 0.831922 0.717788
vt 0.196762 0.414621
vt 0.831922 0.717782
vt 0.307704 0.986023
vn 0.000000 -0.047002 -0.998895
vn 0.000000 0.801380 0.598155
vn 0.410431 0.911892 -0.000000
vn -0.996967 -0.077822 -0.000000
vn 0.000000 1.000000 -0.000000
vn -0.410430 0.911892 -0.000000
vn 0.996967 -0.077822 0.000000
vn 0.000000 -0.047002 0.998895
vn 0.000000 0.801281 -0.598288
vn -0.000006 0.801286 0.598282
vn 0.410319 0.911942 -0.000012
vn -0.410429 0.911892 0.000000
vn 0.996967 -0.077822 0.000001
vn 0.000000 -0.047001 0.998895
s off
f 3/1/1 10/2/1 2/3/1
f 5/4/2 8/5/2 11/6/2
f 1/7/3 5/4/3 9/8/3
f 3/9/4 7/10/4 10/11/4
f 5/4/5 1/7/5 8/5/5
f 12/12/6 8/5/6 10/13/6
f 11/14/7 6/10/7 2/9/7
f 12/2/8 7/1/8 11/15/8
f 1/7/9 9/8/9 4/16/9
f 10/2/1 9/17/1 2/3/1
f 8/5/10 12/12/10 11/6/10
f 5/4/11 11/6/11 9/8/11
f 7/10/4 12/18/4 10/11/4
f 1/7/5 4/16/5 8/5/5
f 8/5/12 4/16/12 10/13/12
f 9/11/13 11/14/13 2/9/13
f 7/1/14 6/3/14 11/15/14
f 9/8/9 10/13/9 4/16/9
