# Blender v2.69 (sub 0) OBJ File: 'schedario.blend'
# www.blender.org
v 1.415115 1.415604 -0.000540
v 1.415115 -1.414626 -0.000541
v -1.415115 -1.414626 -0.000541
v -1.415115 1.415605 -0.000540
v 1.396137 -1.455573 -0.504981
v 1.396137 1.456552 -0.504981
v 1.456063 1.396626 -0.504981
v 1.456062 -1.395648 -0.504981
v 1.354165 -1.397985 -0.504981
v 1.354166 1.398963 -0.504981
v 1.412289 -1.340430 -0.504981
v 1.412290 1.341408 -0.504981
v 1.396137 -1.455574 0.503900
v 1.396137 1.456552 0.503900
v 1.456063 1.396626 0.503900
v 1.456062 -1.395648 0.503900
v 1.354165 -1.397985 0.503900
v 1.354166 1.398963 0.503900
v 1.412290 -1.340430 0.503900
v 1.412290 1.341408 0.503900
v -1.412290 1.341408 0.503900
v -1.412290 -1.340430 0.503900
v -1.354166 1.398963 0.503900
v -1.354165 -1.397985 0.503900
v -1.456062 -1.395648 0.503900
v -1.456063 1.396626 0.503900
v -1.396137 1.456552 0.503900
v -1.396137 -1.455574 0.503900
v -1.412290 1.341408 -0.504981
v -1.412289 -1.340430 -0.504981
v -1.354166 1.398963 -0.504981
v -1.354165 -1.397985 -0.504981
v -1.456062 -1.395648 -0.504981
v -1.456063 1.396626 -0.504981
v -1.396137 1.456552 -0.504981
v -1.396137 -1.455573 -0.504981
v -1.420453 -0.001605 -0.468554
v -1.420453 -0.001606 0.475949
v 1.420453 -0.001606 0.475949
v 1.420453 -0.001605 -0.468554
v 1.420453 -0.035788 0.475949
v 1.420453 -0.035788 -0.468554
v -1.420453 -0.035788 -0.468554
v -1.420453 -0.035788 0.475949
v -1.420453 0.476962 0.475949
v -1.420453 0.476963 -0.468554
v 1.420453 0.476963 -0.468554
v 1.420453 0.476962 0.475949
v 1.420453 0.511145 -0.468554
v 1.420453 0.511145 0.475949
v -1.420453 0.511145 0.475949
v -1.420453 0.511145 -0.468554
v -1.420453 0.990144 -0.468554
v -1.420453 0.990144 0.475949
v 1.420453 0.990144 0.475949
v 1.420453 0.990144 -0.468554
v 1.420453 0.955962 0.475949
v 1.420453 0.955962 -0.468554
v -1.420453 0.955962 -0.468554
v -1.420453 0.955962 0.475949
v -1.420453 -0.954983 0.475949
v -1.420453 -0.954983 -0.468554
v 1.420453 -0.954983 -0.468554
v 1.420453 -0.954983 0.475949
v 1.420453 -0.989165 -0.468554
v 1.420453 -0.989165 0.475949
v -1.420453 -0.989165 0.475949
v -1.420453 -0.989165 -0.468554
v -1.420453 -0.510166 -0.468554
v -1.420453 -0.510166 0.475949
v 1.420453 -0.510166 0.475949
v 1.420453 -0.510166 -0.468554
v 1.420453 -0.475984 0.475949
v 1.420453 -0.475984 -0.468554
v -1.420453 -0.475984 -0.468554
v -1.420453 -0.475984 0.475949
vt 0.954251 0.956155
vt 0.954251 0.611564
vt 0.609659 0.956155
vt 0.431332 0.622880
vt 0.431332 0.976218
vt 0.303667 0.622880
vt 0.431332 0.615297
vt 0.431332 0.983801
vt 0.303667 0.976218
vt 0.292532 0.596021
vt 0.164868 0.596020
vt 0.292535 0.253310
vt 0.572298 0.972099
vt 0.572299 0.625380
vt 0.441866 0.972099
vt 0.572298 0.616836
vt 0.441866 0.625380
vt 0.572299 0.980636
vt 0.970072 0.977053
vt 0.964453 0.969343
vt 0.972235 0.961637
vt 0.978095 0.969030
vt 0.978095 0.595183
vt 0.970072 0.587160
vt 0.972234 0.602576
vt 0.964453 0.594870
vt 0.596225 0.587160
vt 0.601844 0.594870
vt 0.594062 0.602576
vt 0.588201 0.969030
vt 0.588202 0.595183
vt 0.594062 0.961637
vt 0.596225 0.977053
vt 0.436125 0.588106
vt 0.436127 0.598460
vt 0.308456 0.588125
vt 0.436116 0.248397
vt 0.308450 0.248407
vt 0.436158 0.237713
vt 0.289771 0.975671
vt 0.162106 0.975671
vt 0.289771 0.983254
vt 0.289771 0.622333
vt 0.289771 0.614750
vt 0.162106 0.622333
vt 0.148710 0.641946
vt 0.148729 0.980235
vt 0.021051 0.641952
vt 0.146159 0.595089
vt 0.018490 0.595102
vt 0.146123 0.252364
vt 0.580626 0.197170
vt 0.580626 0.577528
vt 0.454170 0.197170
vt 0.030161 0.209966
vt 0.030160 0.205390
vt 0.410519 0.209966
vt 0.410519 0.074357
vt 0.410519 0.078934
vt 0.030160 0.074357
vt 0.030160 0.078934
vt 0.977163 0.283195
vt 0.596804 0.283195
vt 0.977163 0.156739
vt 0.596804 0.287772
vt 0.977163 0.287772
vt 0.977163 0.152162
vt 0.596804 0.152162
vt 0.596804 0.025706
vt 0.977163 0.025706
vt 0.977162 0.565314
vt 0.596804 0.565314
vt 0.977162 0.438858
vt 0.596804 0.438858
vt 0.596804 0.434282
vt 0.977162 0.303249
vt 0.977162 0.307825
vt 0.596804 0.303249
vt 0.596804 0.307825
vt 0.977162 0.307888
vt 0.977162 0.434344
vt 0.596804 0.307888
vt 0.596804 0.565377
vt 0.977162 0.565377
vt 0.596804 0.569953
vt 0.977162 0.438921
vt 0.596804 0.438921
vt 0.977163 0.025312
vt 0.977163 0.151768
vt 0.596804 0.025312
vt 0.596804 0.151768
vt 0.596804 0.156345
vt 0.977163 0.020735
vt 0.596804 0.282801
vt 0.977163 0.282801
vt 0.609659 0.611564
vt 0.303667 0.615297
vt 0.303667 0.983801
vt 0.164871 0.253309
vt 0.441867 0.616835
vt 0.441863 0.980650
vt 0.601844 0.969343
vt 0.308458 0.598474
vt 0.308495 0.237712
vt 0.162106 0.983254
vt 0.162106 0.614750
vt 0.021071 0.980243
vt 0.018454 0.252378
vt 0.454170 0.577528
vt 0.410519 0.205390
vt 0.596804 0.156739
vt 0.977162 0.434282
vt 0.596804 0.434344
vt 0.977162 0.569953
vt 0.977163 0.156345
vt 0.596804 0.020735
vn 0.000000 0.000000 -1.000000
vn 1.000000 -0.000000 -0.000000
vn 0.707106 -0.707108 -0.000000
vn 0.707107 0.707106 -0.000000
vn 0.000000 1.000000 0.000000
vn -1.000000 0.000000 0.000000
vn -0.703616 0.710580 0.000000
vn -0.703623 -0.710574 0.000000
vn 0.000001 0.000000 1.000000
vn 0.000000 -0.000000 1.000000
vn 0.703623 -0.710574 0.000000
vn 0.703616 0.710580 0.000000
vn -0.707107 0.707106 -0.000000
vn -0.707106 -0.707108 -0.000000
vn 0.000000 -1.000000 0.000000
vn 0.000000 0.000001 -1.000000
vn 0.707107 -0.707106 -0.000000
vn -0.703621 0.710576 0.000001
vn -0.703624 -0.710573 0.000000
vn -0.000002 -0.000000 1.000000
vn 0.703624 -0.710573 0.000000
vn 0.703621 0.710576 0.000000
vn -0.707107 -0.707106 -0.000000
s off
f 1/1/1 2/2/1 4/3/1
f 8/4/2 7/5/2 16/6/2
f 8/4/3 16/6/3 5/7/3
f 7/5/4 6/8/4 15/9/4
f 32/10/5 24/11/5 9/12/5
f 12/13/6 11/14/6 20/15/6
f 11/14/7 9/16/7 19/17/7
f 12/13/8 20/15/8 10/18/8
f 14/19/9 18/20/9 20/21/9
f 15/22/10 20/21/10 16/23/10
f 13/24/10 16/23/10 19/25/10
f 13/24/10 17/26/10 28/27/10
f 28/27/10 24/28/10 22/29/10
f 26/30/10 25/31/10 21/32/10
f 27/33/9 26/30/9 21/32/9
f 29/34/11 31/35/11 21/36/11
f 30/37/12 22/38/12 32/39/12
f 29/34/2 21/36/2 30/37/2
f 34/40/13 26/41/13 35/42/13
f 33/43/14 36/44/14 25/45/14
f 33/43/6 25/45/6 34/40/6
f 6/46/5 35/47/5 14/48/5
f 10/49/15 18/50/15 31/51/15
f 14/19/10 27/33/10 18/20/10
f 7/22/1 8/23/1 12/21/1
f 5/24/1 9/26/1 11/25/1
f 5/24/1 36/27/1 9/26/1
f 30/29/1 32/28/1 36/27/1
f 29/32/1 30/29/1 34/30/1
f 29/32/1 34/30/1 35/33/1
f 6/19/1 10/20/1 35/33/1
f 6/19/1 7/22/1 12/21/1
f 40/52/5 37/53/5 39/54/5
f 38/55/10 44/56/10 39/57/10
f 40/58/16 42/59/16 37/60/16
f 43/61/15 42/59/15 44/56/15
f 46/62/15 47/63/15 45/64/15
f 49/65/1 47/63/1 52/66/1
f 51/67/10 45/64/10 50/68/10
f 49/69/5 52/70/5 50/68/5
f 56/71/5 53/72/5 55/73/5
f 54/74/10 60/75/10 55/73/10
f 56/76/1 58/77/1 53/78/1
f 59/79/15 58/77/15 60/75/15
f 62/80/5 61/81/5 63/82/5
f 65/83/1 68/84/1 63/85/1
f 67/86/10 66/87/10 61/81/10
f 65/83/15 66/87/15 68/84/15
f 72/88/15 71/89/15 69/90/15
f 70/91/10 71/89/10 76/92/10
f 72/88/1 69/90/1 74/93/1
f 75/94/5 76/92/5 74/95/5
f 2/2/1 3/96/1 4/3/1
f 7/5/2 15/9/2 16/6/2
f 16/6/17 13/97/17 5/7/17
f 6/8/4 14/98/4 15/9/4
f 24/11/5 17/99/5 9/12/5
f 11/14/6 19/17/6 20/15/6
f 9/16/18 17/100/18 19/17/18
f 20/15/19 18/101/19 10/18/19
f 15/22/10 14/19/10 20/21/10
f 20/21/9 19/25/9 16/23/9
f 17/26/10 13/24/10 19/25/10
f 17/26/10 24/28/10 28/27/10
f 25/31/10 28/27/10 22/29/10
f 25/31/20 22/29/20 21/32/20
f 23/102/10 27/33/10 21/32/10
f 31/35/21 23/103/21 21/36/21
f 22/38/22 24/104/22 32/39/22
f 21/36/2 22/38/2 30/37/2
f 26/41/13 27/105/13 35/42/13
f 36/44/23 28/106/23 25/45/23
f 25/45/6 26/41/6 34/40/6
f 35/47/5 27/107/5 14/48/5
f 18/50/15 23/108/15 31/51/15
f 27/33/10 23/102/10 18/20/10
f 8/23/1 11/25/1 12/21/1
f 8/23/1 5/24/1 11/25/1
f 36/27/1 32/28/1 9/26/1
f 33/31/1 30/29/1 36/27/1
f 30/29/1 33/31/1 34/30/1
f 31/102/1 29/32/1 35/33/1
f 10/20/1 31/102/1 35/33/1
f 10/20/1 6/19/1 12/21/1
f 37/53/5 38/109/5 39/54/5
f 44/56/10 41/110/10 39/57/10
f 42/59/16 43/61/16 37/60/16
f 42/59/15 41/110/15 44/56/15
f 47/63/15 48/111/15 45/64/15
f 47/63/1 46/62/1 52/66/1
f 45/64/10 48/111/10 50/68/10
f 52/70/5 51/67/5 50/68/5
f 53/72/5 54/74/5 55/73/5
f 60/75/10 57/112/10 55/73/10
f 58/77/1 59/79/1 53/78/1
f 58/77/15 57/112/15 60/75/15
f 61/81/5 64/113/5 63/82/5
f 68/84/1 62/114/1 63/85/1
f 66/87/10 64/113/10 61/81/10
f 66/87/15 67/86/15 68/84/15
f 71/89/15 70/91/15 69/90/15
f 71/89/10 73/115/10 76/92/10
f 69/90/1 75/116/1 74/93/1
f 76/92/5 73/115/5 74/95/5
