# Blender v2.69 (sub 0) OBJ File: 'Tavolo1.blend'
# www.blender.org
v 0.874625 0.384768 -0.541221
v 0.874625 0.384768 0.541221
v -0.874625 0.384768 0.541221
v -0.874624 0.384768 -0.541221
v 0.910127 0.478417 -0.563190
v 0.910126 0.478417 0.563190
v -0.910127 0.478417 0.563190
v -0.910127 0.478417 -0.563190
v 0.919683 0.450017 -0.569103
v 0.919683 0.450017 0.569103
v -0.919683 0.450017 0.569103
v -0.919683 0.450017 -0.569103
v -0.755462 -0.309958 0.420281
v -0.786541 0.463506 0.389201
v -0.786541 0.463506 0.492801
v -0.755462 -0.309958 0.461721
v -0.714022 -0.309958 0.420281
v -0.682942 0.463506 0.389202
v -0.682942 0.463506 0.492801
v -0.714022 -0.309958 0.461721
v 0.755463 -0.309958 0.420281
v 0.786542 0.463506 0.389201
v 0.786542 0.463506 0.492801
v 0.755463 -0.309958 0.461721
v 0.714023 -0.309958 0.420281
v 0.682943 0.463506 0.389202
v 0.682943 0.463506 0.492801
v 0.714023 -0.309958 0.461721
v -0.755462 -0.309957 -0.420281
v -0.786541 0.463507 -0.389201
v -0.786541 0.463507 -0.492801
v -0.755462 -0.309957 -0.461721
v -0.714022 -0.309957 -0.420281
v -0.682942 0.463507 -0.389201
v -0.682942 0.463507 -0.492801
v -0.714022 -0.309957 -0.461721
v 0.755463 -0.309958 -0.420281
v 0.786542 0.463506 -0.389201
v 0.786542 0.463506 -0.492801
v 0.755462 -0.309958 -0.461721
v 0.714023 -0.309958 -0.420281
v 0.682943 0.463506 -0.389202
v 0.682943 0.463506 -0.492801
v 0.714023 -0.309958 -0.461721
v 0.726455 -0.368736 -0.449289
v 0.726455 -0.368736 -0.432713
v 0.743031 -0.368736 -0.449289
v 0.743031 -0.368736 -0.432713
v -0.726454 -0.368735 -0.449289
v -0.726454 -0.368735 -0.432713
v -0.743030 -0.368735 -0.449289
v -0.743030 -0.368735 -0.432713
v 0.726455 -0.368736 0.449289
v 0.726455 -0.368736 0.432713
v 0.743031 -0.368736 0.449289
v 0.743031 -0.368736 0.432713
v -0.726454 -0.368736 0.449289
v -0.726454 -0.368736 0.432713
v -0.743030 -0.368736 0.449289
v -0.743030 -0.368736 0.432713
vt 0.900312 0.927843
vt 0.100504 0.927843
vt 0.900312 0.432918
vt 0.952514 0.918190
vt 0.913703 0.930441
vt 0.952513 0.442571
vt 0.884713 0.379635
vt 0.904511 0.417340
vt 0.116103 0.379635
vt 0.048302 0.442572
vt 0.087113 0.430320
vt 0.048302 0.918190
vt 0.904511 0.943421
vt 0.884713 0.981127
vt 0.096305 0.943422
vt 0.100503 0.432919
vt 0.087113 0.930441
vt 0.096305 0.417340
vt 0.913702 0.430320
vt 0.495376 0.284085
vt 0.495731 0.262124
vt 0.889036 0.312233
vt 0.495322 0.218198
vt 0.888988 0.165317
vt 0.495713 0.240158
vt 0.494648 0.306030
vt 0.889346 0.263263
vt 0.889331 0.214284
vt 0.099532 0.093610
vt 0.493245 0.062501
vt 0.099924 0.115568
vt 0.099589 0.159492
vt 0.099943 0.137532
vt 0.493295 0.209410
vt 0.098766 0.071668
vt 0.493588 0.111465
vt 0.493604 0.160444
vt 0.493639 0.284052
vt 0.100167 0.314991
vt 0.493249 0.262099
vt 0.493587 0.218184
vt 0.493232 0.240139
vt 0.100120 0.168102
vt 0.494402 0.305990
vt 0.099825 0.266037
vt 0.099809 0.217058
vt 0.891693 0.090711
vt 0.891338 0.112673
vt 0.497970 0.062605
vt 0.891749 0.156601
vt 0.498019 0.209526
vt 0.891357 0.134640
vt 0.892421 0.068765
vt 0.497660 0.111577
vt 0.497676 0.160557
vt 0.976891 0.229568
vt 0.916416 0.212366
vt 0.979744 0.199979
vt 0.976077 0.170454
vt 0.916091 0.188720
vt 0.913740 0.177128
vt 0.916988 0.200536
vt 0.966119 0.258715
vt 0.914386 0.224000
vt 0.979745 0.199970
vt 0.976891 0.229559
vt 0.916992 0.200526
vt 0.964507 0.141528
vt 0.976078 0.170446
vt 0.913744 0.177118
vt 0.966119 0.258705
vt 0.916420 0.212356
vt 0.916095 0.188710
vt 0.976081 0.170415
vt 0.979755 0.199938
vt 0.916110 0.188719
vt 0.976911 0.229527
vt 0.966147 0.258673
vt 0.914415 0.223998
vt 0.917010 0.200534
vt 0.964502 0.141501
vt 0.913756 0.177130
vt 0.979756 0.199939
vt 0.917011 0.200533
vt 0.976081 0.170417
vt 0.966146 0.258674
vt 0.914415 0.223997
vt 0.976910 0.229529
vt 0.916111 0.188719
vt 0.964502 0.141503
vt 0.916443 0.212363
vt 0.116103 0.981127
vt 0.888400 0.361167
vt 0.492576 0.013574
vt 0.100834 0.363907
vt 0.498606 0.013668
vt 0.964506 0.141536
vt 0.914389 0.223990
vt 0.916442 0.212364
vt 0.913758 0.177128
vn 0.000000 1.000000 -0.000000
vn 0.822866 -0.568236 0.000000
vn -0.000000 -0.392948 0.919561
vn -0.822867 -0.568234 -0.000000
vn 0.000000 0.203851 -0.979002
vn 0.000000 -0.392943 -0.919563
vn -0.947784 0.318913 -0.000000
vn -0.000000 0.203840 0.979004
vn 0.947782 0.318919 0.000001
vn -0.999194 -0.040150 0.000000
vn 0.999194 -0.040150 0.000000
vn 0.000000 -0.040150 -0.999194
vn 0.000000 -0.040150 0.999194
vn -0.000001 -0.040150 0.999194
vn 0.999194 -0.040150 -0.000001
vn 0.000000 -0.040151 -0.999194
vn 0.000003 -0.206929 -0.978356
vn 0.000000 -0.206928 0.978356
vn -0.978356 -0.206929 0.000000
vn 0.978356 -0.206929 0.000000
vn 0.000000 -0.206927 -0.978356
vn 0.000000 -0.206927 0.978356
vn 0.978356 -0.206927 0.000000
vn -0.978357 -0.206926 0.000000
vn 0.000001 -0.206929 0.978356
vn 0.000000 -0.206928 -0.978356
vn 0.978357 -0.206925 0.000000
vn -0.000001 -0.206928 0.978356
vn 0.000000 -0.206929 -0.978356
vn -0.978356 -0.206928 0.000000
vn 0.822869 -0.568231 0.000001
vn -0.000000 -0.392945 0.919562
vn -0.822866 -0.568235 -0.000000
vn 0.000000 0.203848 -0.979003
vn 0.000000 -0.392945 -0.919562
vn -0.947784 0.318914 -0.000000
vn -0.000000 0.203849 0.979002
vn -0.999194 -0.040150 0.000002
vn 0.999194 -0.040151 0.000000
vn 0.000001 -0.040150 -0.999194
vn -0.000001 -0.040150 -0.999194
vn -0.999194 -0.040150 -0.000002
vn 0.000001 -0.040150 0.999194
vn 0.000002 -0.040150 -0.999194
vn 0.000007 -0.206926 -0.978357
vn -0.978355 -0.206935 0.000000
vn 0.000000 -0.206929 0.978356
vn 0.978357 -0.206926 0.000000
vn -0.978357 -0.206925 0.000000
vn -0.978355 -0.206932 0.000000
vn 0.978356 -0.206928 0.000000
vn -0.000004 -0.206926 0.978357
s off
f 5/1/1 8/2/1 6/3/1
f 1/4/2 9/5/2 2/6/2
f 2/7/3 10/8/3 3/9/3
f 3/10/4 11/11/4 4/12/4
f 5/1/5 9/13/5 8/2/5
f 9/13/6 1/14/6 12/15/6
f 11/11/7 7/16/7 12/17/7
f 10/8/8 6/3/8 11/18/8
f 9/5/9 5/1/9 10/19/9
f 13/20/10 16/21/10 14/22/10
f 17/23/11 18/24/11 20/25/11
f 13/20/12 14/22/12 17/26/12
f 15/27/13 16/21/13 19/28/13
f 21/29/11 22/30/11 24/31/11
f 25/32/10 28/33/10 26/34/10
f 21/29/12 25/35/12 22/30/12
f 23/36/14 27/37/14 24/31/14
f 29/38/10 30/39/10 32/40/10
f 33/41/11 36/42/11 34/43/11
f 29/38/13 33/44/13 30/39/13
f 31/45/12 35/46/12 32/40/12
f 37/47/15 40/48/15 38/49/15
f 41/50/10 42/51/10 44/52/10
f 37/47/13 38/49/13 41/53/13
f 39/54/16 40/48/16 43/55/16
f 40/56/17 47/57/17 44/58/17
f 41/59/18 46/60/18 48/61/18
f 44/58/19 45/62/19 41/59/19
f 37/63/20 48/64/20 47/57/20
f 32/65/21 36/66/21 51/67/21
f 33/68/22 29/69/22 50/70/22
f 36/66/23 33/71/23 49/72/23
f 29/69/24 32/65/24 52/73/24
f 24/74/25 28/75/25 55/76/25
f 25/77/26 21/78/26 56/79/26
f 28/75/19 25/77/19 53/80/19
f 21/81/27 24/74/27 56/82/27
f 16/83/28 59/84/28 20/85/28
f 17/86/29 58/87/29 13/88/29
f 20/85/20 57/89/20 17/90/20
f 13/88/30 60/91/30 59/84/30
f 8/2/1 7/16/1 6/3/1
f 9/5/31 10/19/31 2/6/31
f 10/8/32 11/18/32 3/9/32
f 11/11/33 12/17/33 4/12/33
f 9/13/34 12/15/34 8/2/34
f 1/14/35 4/92/35 12/15/35
f 7/16/36 8/2/36 12/17/36
f 6/3/37 7/16/37 11/18/37
f 5/1/9 6/3/9 10/19/9
f 16/21/38 15/27/38 14/22/38
f 18/24/39 19/28/39 20/25/39
f 14/22/40 18/93/40 17/26/40
f 16/21/13 20/25/13 19/28/13
f 22/30/11 23/36/11 24/31/11
f 28/33/10 27/37/10 26/34/10
f 25/35/41 26/94/41 22/30/41
f 27/37/13 28/33/13 24/31/13
f 30/39/42 31/45/42 32/40/42
f 36/42/11 35/46/11 34/43/11
f 33/44/43 34/95/43 30/39/43
f 35/46/12 36/42/12 32/40/12
f 40/48/11 39/54/11 38/49/11
f 42/51/10 43/55/10 44/52/10
f 38/49/14 42/96/14 41/53/14
f 40/48/44 44/52/44 43/55/44
f 47/57/45 45/62/45 44/58/45
f 37/97/18 41/59/18 48/61/18
f 45/62/46 46/60/46 41/59/46
f 40/56/23 37/63/23 47/57/23
f 36/66/21 49/72/21 51/67/21
f 29/69/47 52/73/47 50/70/47
f 33/71/48 50/98/48 49/72/48
f 32/65/49 51/67/49 52/73/49
f 28/75/18 53/80/18 55/76/18
f 54/99/21 25/77/21 56/79/21
f 25/77/50 54/99/50 53/80/50
f 24/74/51 55/76/51 56/82/51
f 59/84/52 57/89/52 20/85/52
f 58/87/21 60/91/21 13/88/21
f 57/89/23 58/100/23 17/90/23
f 16/83/30 13/88/30 59/84/30
